<svg xmlns="http://www.w3.org/2000/svg" viewBox="0 0 88.8 66.11"><defs><style>.cls-1{fill:#000;}</style></defs><g id="Calque_2" data-name="Calque 2"><g id="Calque_1-2" data-name="Calque 1"><path class="cls-1" d="M87.68,31.27a84.24,84.24,0,0,0-12.5-12.93C65,9.78,54.31,5.26,44.39,5.26A41.3,41.3,0,0,0,25.3,10.42h0c-.31.16-.61.35-.92.52s-.8.42-1.2.66h0a68.6,68.6,0,0,0-9.59,6.75A84.24,84.24,0,0,0,1.09,31.28L0,32.76l1.1,1.49c.06.08.53.72,1.37,1.73L23.13,15.32l1.23,1.23L26.79,19l-7.51,7.51A26,26,0,0,0,18.46,33c0,.47,0,.93,0,1.39L23.85,29A20.72,20.72,0,0,1,30,17.87l.35-.32c.36-.32.71-.64,1.09-.93A20.75,20.75,0,0,1,60.57,45.76c-.21.27-.44.53-.67.8l-.48.54a20.86,20.86,0,0,1-8.72,5.6l-6,6-1.53,1.53c.42,0,.84,0,1.26,0a35,35,0,0,0,6.39-.62l2.63-2.63,5.71-5.71,1.5,1.5,2.49,2.49c.81-.42,1.63-.87,2.44-1.34h0l1.17-.71c.29-.18.59-.34.88-.53h0a71.27,71.27,0,0,0,7.58-5.55A84.24,84.24,0,0,0,87.7,34.28l1.1-1.49ZM64.57,48.74a25.72,25.72,0,0,0-.51-32.27A78.8,78.8,0,0,1,82.49,32.75,78.63,78.63,0,0,1,64.57,48.74Z"/><path class="cls-1" d="M9.43,36.31,5.88,39.86c1,1.1,2.2,2.3,3.52,3.56L13,39.87C11.63,38.61,10.45,37.4,9.43,36.31Z"/><path class="cls-1" d="M13.23,46.87l.36.31c1.19,1,2.39,1.93,3.59,2.82l3.59-3.59c-1.4-1-2.73-2-4-3.1Z"/><path class="cls-1" d="M34,32.76c0,.15,0,.29,0,.44l3.52-3.52,3.66,3.66-5.32,5.32a10.27,10.27,0,0,0,3.81,3.26l5-5.05,3.72,3.72L46.2,42.8a10.18,10.18,0,0,0,5.31-2.89h0l.14-.16.08-.09c.21-.23.41-.46.6-.71l.07-.09c.19-.25.36-.51.53-.77l0,0h0a10.15,10.15,0,0,0,1.5-5.32A10.24,10.24,0,0,0,38.9,24h0l0,0a10.42,10.42,0,0,0-1.82,1.41h0A10.21,10.21,0,0,0,34,32.76Z"/><path class="cls-1" d="M25.44,41.74a20.88,20.88,0,0,1-1.68-5.39l-4.17,4.17a25.28,25.28,0,0,0,2.12,4.95Z"/><path class="cls-1" d="M28.28,46.23l-3.54,3.54L21.55,53c1.51.94,3,1.78,4.53,2.54l2.29-2.29L32,49.63A19.76,19.76,0,0,1,28.28,46.23Z"/><path class="cls-1" d="M32.92,56.09l-1.68,1.68a44.81,44.81,0,0,0,5.45,1.62L38.11,58l4.35-4.35a20.71,20.71,0,0,1-5.74-1.33Z"/><rect class="cls-1" x="42.03" y="-11.19" width="5" height="88.5" transform="translate(-10.33 41.17) rotate(-45)"/></g></g></svg>